<svg xmlns="http://www.w3.org/2000/svg" version="1.1" xmlns:xlink="http://www.w3.org/1999/xlink" xmlns:svgjs="http://svgjs.dev/svgjs" width="1000" height="1125" viewBox="0 0 1000 1125"><g transform="matrix(1,0,0,1,0,0)"><svg viewBox="0 0 320 360" data-background-color="#ffffff" preserveAspectRatio="xMidYMid meet" height="1125" width="1000" xmlns="http://www.w3.org/2000/svg" xmlns:xlink="http://www.w3.org/1999/xlink"><g id="tight-bounds" transform="matrix(1,0,0,1,0,0)"><svg viewBox="0 0 320 360" height="360" width="320"><g><svg></svg></g><g><svg viewBox="0 0 320 360" height="360" width="320"><g><path d="M160 42.18c72.417 0 131.943 56.114 137.63 127.014h22.37c-1.137-17.82-5.308-34.882-12.133-51.185-7.962-18.957-19.716-36.398-34.502-50.805-14.787-14.787-31.848-26.161-50.806-34.503-20.095-8.341-40.948-12.891-62.559-12.891-21.611 0-42.464 4.171-62.559 12.512-18.957 7.962-36.398 19.716-50.806 34.503-14.787 14.787-26.161 31.848-34.502 50.805-6.825 16.303-10.995 33.744-12.133 51.185h22.37c5.687-70.521 65.213-126.635 137.63-126.635zM160 318.199c-72.417 0-131.943-56.114-137.63-127.014h-22.37c1.137 17.82 5.308 34.882 12.133 51.185 7.962 18.957 19.716 36.398 34.502 50.805 14.787 14.787 31.848 26.161 50.806 34.503 19.716 8.341 40.569 12.512 62.559 12.512 21.991 0 42.464-4.171 62.559-12.512 18.957-7.962 36.398-19.716 50.806-34.503 14.787-14.787 26.161-31.848 34.502-50.805 6.825-16.303 10.995-33.744 12.133-51.185h-22.37c-5.687 70.9-65.213 127.014-137.63 127.014z" fill="#f5ba41" fill-rule="nonzero" stroke="none" stroke-width="1" stroke-linecap="butt" stroke-linejoin="miter" stroke-miterlimit="10" stroke-dasharray="" stroke-dashoffset="0" font-family="none" font-weight="none" font-size="none" text-anchor="none" style="mix-blend-mode: normal" data-fill-palette-color="tertiary"></path></g><g transform="matrix(1,0,0,1,56,119.66075558982267)"><svg viewBox="0 0 208 120.67848882035466" height="120.67848882035466" width="208"><g><svg viewBox="0 0 208 120.67848882035466" height="120.67848882035466" width="208"><g><svg viewBox="0 0 208 120.67848882035466" height="120.67848882035466" width="208"><g id="textblocktransform"><svg viewBox="0 0 208 120.67848882035466" height="120.67848882035466" width="208" id="textblock"><g><svg viewBox="0 0 208 120.67848882035466" height="120.67848882035466" width="208"><g transform="matrix(1,0,0,1,0,0)"><svg width="208" viewBox="3.32 -36.25 63.330000000000005 36.739999999999995" height="120.67848882035466" data-palette-color="#f5ba41"><path d="M32.32-6.59L32.32-3.39Q31.03-2.27 29.46-1.53 27.88-0.78 26.26-0.33 24.63 0.12 23.06 0.31 21.48 0.49 20.21 0.49L20.21 0.49Q16.63 0.49 13.54-0.76 10.45-2 8.18-4.28 5.91-6.57 4.61-9.8 3.32-13.04 3.32-16.99L3.32-16.99Q3.32-20.02 4.08-22.62 4.83-25.22 6.18-27.36 7.52-29.49 9.38-31.15 11.23-32.81 13.43-33.95 15.63-35.08 18.09-35.67 20.56-36.25 23.14-36.25L23.14-36.25Q23.97-36.25 25.02-36.18 26.07-36.11 27.27-35.95 28.47-35.79 29.75-35.53 31.03-35.28 32.35-34.89L32.35-34.89 31.37-30.15 30.88-29.91Q28.34-31.08 26.14-31.52 23.93-31.96 22.31-31.96L22.31-31.96Q19.53-31.96 17.19-30.9 14.84-29.83 13.16-27.98 11.47-26.12 10.53-23.6 9.59-21.07 9.59-18.16L9.59-18.16Q9.59-15.31 10.47-12.74 11.35-10.18 13.05-8.24 14.75-6.3 17.21-5.15 19.68-4 22.88-4L22.88-4Q24.9-4 27.32-4.57 29.74-5.13 32.32-6.59L32.32-6.59ZM54.69-31.47L54.69 0 48.61 0 48.61-31.47 37.01-31.47 37.81-35.77 66.65-35.77 65.84-31.47 54.69-31.47Z" opacity="1" transform="matrix(1,0,0,1,0,0)" fill="#f5ba41" class="wordmark-text-0" data-fill-palette-color="primary" id="text-0"></path></svg></g></svg></g></svg></g></svg></g><g></g></svg></g></svg></g></svg></g><defs></defs></svg><rect width="320" height="360" fill="none" stroke="none" visibility="hidden"></rect></g></svg></g></svg>